<svg version="1.1" xmlns="http://www.w3.org/2000/svg" xmlns:xlink="http://www.w3.org/1999/xlink" width="476" height="285"><defs><linearGradient id="LwDsafCGTQrN" x1="0px" x2="32px" y1="0px" y2="0px" gradientUnits="userSpaceOnUse"><stop offset="0" stop-color="#08f708"/><stop offset="1" stop-color="#58a758"/></linearGradient><linearGradient id="sWuvgiFdxNbT" x1="0px" x2="32px" y1="0px" y2="0px" gradientUnits="userSpaceOnUse"><stop offset="0" stop-color="#08f708"/><stop offset="1" stop-color="#08f708"/></linearGradient></defs><g><rect fill="#000000" stroke="none" x="0" y="0" width="709" height="770"/><g transform="scale(1,1) translate(-26,11)"><path fill="none" stroke="#08f708" paint-order="fill stroke markers" d=" M 176 176 L 113 176" stroke-miterlimit="10" stroke-width="3" stroke-dasharray=""/><g><text fill="#ffffff" stroke="none" font-family="sans-serif" font-size="10px" font-style="normal" font-weight="normal" text-decoration="normal" x="88" y="176" text-anchor="start" dominant-baseline="central">pin 8</text></g><path fill="none" stroke="#08f708" paint-order="fill stroke markers" d=" M 208 224 L 113 224" stroke-miterlimit="10" stroke-width="3" stroke-dasharray=""/><g><text fill="#ffffff" stroke="none" font-family="sans-serif" font-size="10px" font-style="normal" font-weight="normal" text-decoration="normal" x="88" y="224" text-anchor="start" dominant-baseline="central">pin 9</text></g><path fill="none" stroke="#08f708" paint-order="fill stroke markers" d=" M 208 224 L 224 224" stroke-miterlimit="10" stroke-width="3" stroke-dasharray=""/><path fill="none" stroke="#58a758" paint-order="fill stroke markers" d=" M 256 224 L 272 224" stroke-miterlimit="10" stroke-width="3" stroke-dasharray=""/><g transform="matrix(1,0,0,1,224,224)"><path fill="none" stroke="url(#LwDsafCGTQrN)" paint-order="fill stroke markers" d=" M 0 0 L 2 6 L 6 -6 L 10 6 L 14 -6 L 18 6 L 22 -6 L 26 6 L 30 -6 L 32 0" stroke-miterlimit="10" stroke-width="3" stroke-dasharray=""/></g><text fill="#ffffff" stroke="none" font-family="sans-serif" font-size="12px" font-style="normal" font-weight="normal" text-decoration="normal" x="230" y="214" text-anchor="start" dominant-baseline="alphabetic">180</text><path fill="none" stroke="#58a758" paint-order="fill stroke markers" d=" M 272 224 L 316 224" stroke-miterlimit="10" stroke-width="3" stroke-dasharray=""/><path fill="none" stroke="#877878" paint-order="fill stroke markers" d=" M 340 224 L 384 224" stroke-miterlimit="10" stroke-width="3" stroke-dasharray=""/><path fill="none" stroke="#808080" paint-order="fill stroke markers" d=" M 339.76 224 A 11.76 11.76 0 1 1 339.7599941200005 223.98824000195998" stroke-miterlimit="10" stroke-width="3" stroke-dasharray=""/><path fill="#ff0000" stroke="none" paint-order="stroke fill markers" d=" M 336 224 A 8 8 0 1 1 335.99999999988734 223.9999575425633 Z"/><path fill="none" stroke="#877878" paint-order="fill stroke markers" d=" M 384 224 L 432 224" stroke-miterlimit="10" stroke-width="3" stroke-dasharray=""/><path fill="none" stroke="#877878" paint-order="fill stroke markers" d=" M 432 214 L 432 234" stroke-miterlimit="10" stroke-width="3" stroke-dasharray=""/><path fill="none" stroke="#877878" paint-order="fill stroke markers" d=" M 437 218 L 437 230" stroke-miterlimit="10" stroke-width="3" stroke-dasharray=""/><path fill="none" stroke="#877878" paint-order="fill stroke markers" d=" M 442 222 L 442 226" stroke-miterlimit="10" stroke-width="3" stroke-dasharray=""/><path fill="none" stroke="#877878" paint-order="fill stroke markers" d=" M 336 176 L 368 176" stroke-miterlimit="10" stroke-width="3" stroke-dasharray=""/><path fill="none" stroke="#877878" paint-order="fill stroke markers" d=" M 368 166 L 368 186" stroke-miterlimit="10" stroke-width="3" stroke-dasharray=""/><path fill="none" stroke="#877878" paint-order="fill stroke markers" d=" M 373 170 L 373 182" stroke-miterlimit="10" stroke-width="3" stroke-dasharray=""/><path fill="none" stroke="#877878" paint-order="fill stroke markers" d=" M 378 174 L 378 178" stroke-miterlimit="10" stroke-width="3" stroke-dasharray=""/><path fill="none" stroke="#08f708" paint-order="fill stroke markers" d=" M 176 112 L 176 65" stroke-miterlimit="10" stroke-width="3" stroke-dasharray=""/><g><text fill="#ffffff" stroke="none" font-family="sans-serif" font-size="12px" font-style="normal" font-weight="normal" text-decoration="normal" x="166" y="53" text-anchor="start" dominant-baseline="central">+5V</text></g><path fill="none" stroke="#08f708" paint-order="fill stroke markers" d=" M 176 112 L 176 128" stroke-miterlimit="10" stroke-width="3" stroke-dasharray=""/><path fill="none" stroke="#08f708" paint-order="fill stroke markers" d=" M 176 160 L 176 176" stroke-miterlimit="10" stroke-width="3" stroke-dasharray=""/><g transform="matrix(0,1,-1,0,176,128)"><path fill="none" stroke="url(#sWuvgiFdxNbT)" paint-order="fill stroke markers" d=" M 0 0 L 2 6 L 6 -6 L 10 6 L 14 -6 L 18 6 L 22 -6 L 26 6 L 30 -6 L 32 0" stroke-miterlimit="10" stroke-width="3" stroke-dasharray=""/></g><text fill="#ffffff" stroke="none" font-family="sans-serif" font-size="12px" font-style="normal" font-weight="normal" text-decoration="normal" x="186" y="150" text-anchor="start" dominant-baseline="alphabetic">100k</text><g><text fill="#c0c0c0" stroke="none" font-family="sans-serif" font-size="14px" font-style="normal" font-weight="normal" text-decoration="normal" x="245" y="39" text-anchor="start" dominant-baseline="alphabetic">Java the Hutt ii</text></g><path fill="none" stroke="#08f708" paint-order="fill stroke markers" d=" M 240 176 L 272 176" stroke-miterlimit="10" stroke-width="3" stroke-dasharray=""/><path fill="none" stroke="#877878" paint-order="fill stroke markers" d=" M 304 176 L 336 176" stroke-miterlimit="10" stroke-width="3" stroke-dasharray=""/><path fill="none" stroke="#ffffff" paint-order="fill stroke markers" d=" M 272 176 L 304 160" stroke-miterlimit="10" stroke-width="3" stroke-dasharray=""/><path fill="none" stroke="#08f708" paint-order="fill stroke markers" d=" M 176 176 L 240 176" stroke-miterlimit="10" stroke-width="3" stroke-dasharray=""/><text fill="#ffffff" stroke="none" font-family="sans-serif" font-size="12px" font-style="normal" font-weight="normal" text-decoration="normal" x="208" y="170" text-anchor="start" dominant-baseline="alphabetic"></text><path fill="#ffffff" stroke="none" paint-order="stroke fill markers" d=" M 179 176 A 3 3 0 1 1 178.99999999995774 175.99998407846124 Z"/></g></g></svg>